<svg width="17" height="17" viewBox="0 0 17 17" fill="none" xmlns="http://www.w3.org/2000/svg">
<path d="M15.0367 7.19431H14.4997V7.16665H8.49967V9.83331H12.2673C11.7177 11.3856 10.2407 12.5 8.49967 12.5C6.29067 12.5 4.49967 10.709 4.49967 8.49998C4.49967 6.29098 6.29067 4.49998 8.49967 4.49998C9.51934 4.49998 10.447 4.88465 11.1533 5.51298L13.039 3.62731C11.8483 2.51765 10.2557 1.83331 8.49967 1.83331C4.81801 1.83331 1.83301 4.81831 1.83301 8.49998C1.83301 12.1816 4.81801 15.1666 8.49967 15.1666C12.1813 15.1666 15.1663 12.1816 15.1663 8.49998C15.1663 8.05298 15.1203 7.61665 15.0367 7.19431Z" fill="#FFC107"/>
<path d="M2.60156 5.39698L4.7919 7.00331C5.38456 5.53598 6.8199 4.49998 8.49956 4.49998C9.51923 4.49998 10.4469 4.88465 11.1532 5.51298L13.0389 3.62731C11.8482 2.51765 10.2556 1.83331 8.49956 1.83331C5.9389 1.83331 3.71823 3.27898 2.60156 5.39698Z" fill="#FF3D00"/>
<path d="M8.50043 15.1667C10.2224 15.1667 11.7871 14.5077 12.9701 13.436L10.9068 11.69C10.2149 12.2161 9.36958 12.5007 8.50043 12.5C6.76643 12.5 5.2941 11.3943 4.73943 9.85132L2.56543 11.5263C3.66876 13.6853 5.90943 15.1667 8.50043 15.1667Z" fill="#4CAF50"/>
<path d="M15.037 7.19435H14.5V7.16669H8.5V9.83335H12.2677C12.0047 10.5722 11.5311 11.2177 10.9053 11.6904L10.9063 11.6897L12.9697 13.4357C12.8237 13.5684 15.1667 11.8334 15.1667 8.50002C15.1667 8.05302 15.1207 7.61669 15.037 7.19435Z" fill="#1976D2"/>
</svg>
