<svg width="243" height="324" viewBox="0 0 243 324" fill="none" xmlns="http://www.w3.org/2000/svg">
<path d="M192.69 265.246L122.974 224.856C117.067 221.441 112.278 212.265 112.278 204.372V9.38832C112.278 1.49565 117.067 -2.13316 122.974 1.28829L192.69 41.6459C198.597 45.0673 203.386 54.243 203.386 62.1357V257.139C203.386 265.032 198.597 268.667 192.69 265.246Z" fill="#B1B4C4"/>
<path d="M193.886 268.764L199.411 265.965L194.112 256.854L193.886 268.764Z" fill="#B1B4C4"/>
<path d="M111.192 3.23228L116.278 0.55603L115.251 8.07286L111.192 3.23228Z" fill="#B1B4C4"/>
<path d="M188.244 267.475L118.527 227.111C112.621 223.696 107.832 214.52 107.832 206.627V11.6174C107.832 3.72477 112.621 0.0959513 118.527 3.51092L188.244 43.875C194.151 47.2965 198.939 56.4657 198.939 64.3648V259.368C198.939 267.267 194.151 270.896 188.244 267.475Z" fill="#616E84"/>
<path d="M198.176 64.8638V259.848C198.176 267.753 193.394 271.376 187.487 267.961L160.145 252.13L151.647 247.225L117.784 227.61C111.877 224.188 107.095 215.019 107.095 207.12V12.1164C107.095 4.21728 111.877 0.594942 117.784 4.00992L187.507 44.3675C193.413 47.7954 198.176 56.9582 198.176 64.8638Z" fill="#20232D"/>
<path d="M193.168 62.855V252.785C193.168 257.56 189.827 259.511 185.691 257.113L163.926 244.523L161.987 243.408L161.341 243.026L156.63 240.304L142.994 232.418L137.339 229.145L135.064 227.849L119.613 218.907C115.483 216.516 112.136 210.697 112.136 205.902V15.9591C112.136 11.1703 115.483 9.2328 119.613 11.6239L146.832 27.3833V27.4611C146.832 31.1871 149.417 35.7167 152.649 37.5764C155.88 39.4362 158.465 37.9263 158.465 34.2068C158.465 34.2068 158.465 34.1485 158.465 34.1226L185.691 49.895C189.827 52.2731 193.168 58.0922 193.168 62.855Z" fill="white"/>
<path d="M154.217 35.616C155.079 35.1167 155.078 33.496 154.214 31.9959C153.35 30.4958 151.951 29.6844 151.089 30.1837C150.226 30.6829 150.228 32.3037 151.091 33.8038C151.955 35.3039 153.354 36.1152 154.217 35.616Z" fill="#2B303F"/>
<path opacity="0.1" d="M152.649 33.9736C152.378 33.7976 152.152 33.5596 151.99 33.2791C151.829 32.9986 151.735 32.6836 151.719 32.36C151.719 31.7703 152.132 31.5306 152.649 31.8287C152.921 32.0032 153.148 32.2399 153.311 32.5192C153.473 32.7986 153.568 33.1127 153.586 33.4357C153.586 34.0254 153.16 34.2652 152.649 33.9736Z" fill="white"/>
<path d="M201.027 90.5182C200.458 90.8487 199.999 90.5182 199.999 89.7406V81.4267C200.009 81.0452 200.107 80.6712 200.286 80.334C200.464 79.9967 200.717 79.7054 201.027 79.4827C201.595 79.1522 202.054 79.4827 202.054 80.2668V88.5807C202.043 88.9612 201.945 89.3341 201.767 89.6702C201.589 90.0063 201.335 90.2965 201.027 90.5182Z" fill="#757B89"/>
<path d="M201.027 104.146C200.458 104.47 199.999 104.146 199.999 103.362V95.0478C200.005 94.6608 200.101 94.2806 200.279 93.9374C200.457 93.5943 200.713 93.2977 201.027 93.0714C201.595 92.7474 202.054 93.0714 202.054 93.8555V102.169C202.048 102.556 201.952 102.937 201.774 103.28C201.596 103.623 201.34 103.919 201.027 104.146Z" fill="#757B89"/>
<path d="M180.082 240.926L125.248 209.174C122.405 207.528 120.078 203.102 120.078 199.298V97.1992C120.078 93.3889 122.392 91.6393 125.248 93.3111L180.082 125.063C182.932 126.716 185.252 131.135 185.252 134.945V237.07C185.252 240.822 182.912 242.572 180.082 240.926Z" fill="#E9EAF2"/>
<path d="M146.379 137.595C150.407 135.263 150.406 127.702 146.379 120.707C142.351 113.712 135.821 109.931 131.793 112.263C127.766 114.594 127.766 122.155 131.794 129.15C135.822 136.146 142.352 139.926 146.379 137.595Z" fill="#CED0DB"/>
<path d="M176.85 145.417L155.641 133.137V128.161L176.85 140.44V145.417Z" fill="#CED0DB"/>
<path d="M171.958 151.534L155.641 142.093V137.116L171.958 146.564V151.534Z" fill="#CED0DB"/>
<path d="M176.85 174.143L128.776 146.311V141.341L176.85 169.166V174.143Z" fill="#CED0DB"/>
<path d="M165.754 176.677L128.776 155.267V150.29L165.754 171.7V176.677Z" fill="#CED0DB"/>
<path d="M176.682 191.957L128.608 164.125V159.148L176.682 186.98V191.957Z" fill="#CED0DB"/>
<path d="M165.593 194.49L128.608 173.08V168.104L165.593 189.514V194.49Z" fill="#CED0DB"/>
<path d="M176.682 209.867L128.608 182.036V177.059L176.682 204.891V209.867Z" fill="#CED0DB"/>
<path d="M176.256 227.525L128.182 199.694V194.724L176.256 222.549V227.525Z" fill="#CED0DB"/>
<path d="M165.593 212.401L128.608 190.991V186.014L165.593 207.424V212.401Z" fill="#CED0DB"/>
<g filter="url(#filter0_d_361_4537)">
<path d="M135.239 87.7059C135.013 87.5528 134.823 87.3524 134.681 87.1187C134.54 86.8849 134.45 86.6233 134.418 86.3516L130.968 45.8644L128.253 63.2373C128.189 63.6715 127.833 63.814 127.42 63.5743L120.822 59.7511C120.576 59.589 120.373 59.3715 120.227 59.116C120.081 58.8605 119.997 58.5741 119.981 58.2801C119.981 57.7423 120.363 57.5219 120.828 57.7876L126.709 61.1961L130.321 37.9717C130.386 37.5311 130.767 37.395 131.181 37.6542C131.403 37.8094 131.59 38.0095 131.73 38.2417C131.871 38.4738 131.961 38.7328 131.995 39.002L135.381 78.8931L138.613 55.0077C138.671 54.567 139.013 54.418 139.42 54.6383C139.646 54.7816 139.839 54.9711 139.986 55.1945C140.133 55.4179 140.231 55.6701 140.273 55.9343L144.151 79.2171L147.925 48.7609C147.977 48.3073 148.339 48.1518 148.759 48.3916C148.983 48.5352 149.173 48.7251 149.318 48.9486C149.463 49.1721 149.559 49.4241 149.599 49.6876L154.084 89.1639L157.806 69.7238C157.884 69.3221 158.22 69.1925 158.62 69.4063C159.042 69.689 159.337 70.1264 159.441 70.6245L163.228 90.1942L166.621 60.736C166.672 60.2889 167.021 60.1204 167.441 60.3537C167.67 60.494 167.864 60.6828 168.012 60.9067C168.159 61.1306 168.256 61.3843 168.295 61.6497L172.463 92.7538L175.384 79.1458C175.461 78.757 175.784 78.6274 176.166 78.8283C176.377 78.9566 176.561 79.1259 176.706 79.3261C176.851 79.5264 176.955 79.7536 177.012 79.9947L179.83 91.6134L185.885 95.0218C186.131 95.1811 186.335 95.3961 186.482 95.6494C186.629 95.9028 186.715 96.1872 186.732 96.4799C186.732 97.0242 186.37 97.251 185.898 96.9918L179.222 93.2334C178.82 92.9653 178.532 92.5563 178.415 92.0864L176.366 83.6624L173.18 98.5664C173.096 98.9747 172.741 99.1107 172.334 98.8451C172.115 98.6979 171.93 98.5066 171.79 98.2834C171.65 98.0602 171.557 97.8101 171.519 97.5491L167.584 68.214L164.352 96.3049C164.301 96.739 163.971 96.9075 163.564 96.7002C163.339 96.5668 163.145 96.3868 162.994 96.1723C162.844 95.9578 162.741 95.7136 162.692 95.456L158.756 74.9467L154.788 95.6245C154.704 96.0457 154.336 96.1623 153.929 95.9161C153.712 95.7666 153.529 95.5747 153.389 95.3519C153.249 95.1291 153.155 94.8801 153.114 94.6201L148.804 56.6083L145.185 85.6582C145.133 86.0989 144.791 86.2609 144.377 86.0405C144.153 85.8955 143.96 85.7056 143.812 85.4825C143.664 85.2595 143.564 85.0083 143.518 84.7445L139.64 61.248L136.086 87.3301C136.015 87.7966 135.659 87.9457 135.239 87.7059Z" fill="#FF5A5A"/>
</g>
<path opacity="0.4" d="M31.9631 310.664C49.6159 310.664 63.9263 302.378 63.9263 292.157C63.9263 281.936 49.6159 273.65 31.9631 273.65C14.3104 273.65 0 281.936 0 292.157C0 302.378 14.3104 310.664 31.9631 310.664Z" fill="#D6D8E5"/>
<path d="M9.18992 154.936C8.83449 158.053 5.12506 171.499 5.91994 176.106C6.71482 180.714 19.3876 188.418 19.3876 188.418L21.1454 180.532L14.1272 173.663L16.0207 160.606L9.18992 154.936Z" fill="#FFCEA9"/>
<path d="M18.9933 141.684C17.1838 140.9 13.8233 140.725 11.9363 143.823C10.0493 146.92 8.1364 157.535 7.96191 159.375C7.96191 159.375 10.5792 162.997 14.5019 162.395L18.9933 141.684Z" fill="#EDEDED"/>
<path d="M33.4628 291.6C36.2209 292.361 39.1671 292.002 41.6636 290.602C43.6346 290.66 54.3558 286.066 55.8163 289.921C57.1088 293.311 52.4494 296.44 49.9678 297.049C44.5523 298.345 40.5456 301.074 38.3678 301.534C36.7522 301.877 34.6519 302.104 33.3594 300.827C31.8149 299.298 31.9441 293.628 33.4628 291.6Z" fill="#FFC618"/>
<path d="M38.3677 300.601C40.5455 300.147 44.5522 297.438 49.9677 296.123C52.0486 295.617 55.6288 293.336 55.9907 290.615C56.4689 293.732 52.2813 296.499 49.9677 297.056C44.5522 298.352 40.5455 301.08 38.3677 301.54C36.7521 301.884 34.6518 302.11 33.3593 300.834C33.0259 300.463 32.7826 300.019 32.6484 299.538C34.5355 301.106 36.7521 300.944 38.3677 300.601Z" fill="#111111"/>
<path d="M16.0719 283.778C18.8289 284.546 21.7766 284.189 24.2727 282.787C26.2502 282.845 36.9649 278.251 38.4254 282.139C39.7179 285.528 35.0585 288.658 32.5769 289.267C27.1614 290.563 23.1547 293.291 20.9833 293.751C19.3612 294.095 17.2609 294.321 15.9749 293.038C14.4239 291.47 14.5597 285.8 16.0719 283.778Z" fill="#FFC618"/>
<path d="M20.9839 292.773C23.1553 292.313 27.162 289.61 32.5775 288.295C34.6584 287.79 38.2386 285.502 38.6005 282.787C39.0851 285.904 34.891 288.671 32.5775 289.228C27.162 290.524 23.1553 293.252 20.9839 293.712C19.3618 294.056 17.2615 294.283 15.9755 292.999C15.6372 292.632 15.3933 292.187 15.2646 291.703C17.1452 293.272 19.3618 293.116 20.9839 292.773Z" fill="#111111"/>
<path d="M15.8583 254.573C16.3222 250.58 17.1507 246.639 18.3334 242.799C18.3334 242.799 17.5966 232.632 17.2283 223.002C16.8082 212.07 13.0277 202.448 16.0069 193.725L49.6503 201.229C49.6503 201.229 47.6146 244.814 47.1622 250.089C46.919 254.194 46.4183 258.28 45.6629 262.323C44.1249 270.786 41.6304 290.913 41.6304 290.913C38.0696 292.986 33.4037 291.839 33.4037 291.839C33.4037 291.839 33.6622 266.386 33.8884 260.288C34.1663 252.843 34.3925 253.413 34.3925 253.413L33.2809 234.874L32.5572 225.646C32.5572 225.646 31.6266 232.418 31.0191 238.464C30.4892 243.738 29.2225 248.508 27.7879 258.318C26.56 266.833 24.5567 283.94 24.5567 283.94C21.0023 286.014 16.1555 284.297 16.1555 284.297C16.1555 284.297 14.8954 261.96 15.8583 254.573Z" fill="#50555C"/>
<path d="M20.7704 141.866C23.3554 141.995 25.2424 142.656 25.5655 141.866C25.8391 140.539 26.0334 139.198 26.1471 137.848C25.8499 137.103 25.5978 136.306 25.5978 136.306C22.3666 134.317 21.365 130.83 20.9384 126.774C20.2211 119.834 23.9564 113.756 30.8776 113.03C37.3853 112.382 42.174 116.918 43.4471 123.236C44.1385 126.34 45.5086 132.217 43.6538 137.33C42.6199 140.188 41.2886 142.456 39.9509 142.896C38.6637 142.859 37.3798 142.746 36.1057 142.559C36.1057 142.559 35.7632 144.503 35.5241 145.721C35.285 146.94 35.3819 147.614 37.8377 149.136C40.2934 150.659 34.1218 153.77 30.0828 153.465C26.0437 153.161 21.5201 150.718 20.2728 148.1C18.8963 145.216 19.0126 141.782 20.7704 141.866Z" fill="#FFCEA9"/>
<path d="M24.4794 142.248C23.7685 144.024 25.5715 146.194 30.386 147.711C35.2005 149.227 35.627 147.277 35.627 147.277C35.627 147.277 42.684 150.517 44.9782 152.104C47.8669 154.133 49.1464 159.99 49.5406 169.879C49.9865 181.323 50.0253 198.3 49.6505 201.229C49.6505 201.229 44.2544 206.621 37.3719 206.05C30.4894 205.48 18.8441 199.357 16.0459 194.62C16.1234 184.589 17.2931 182.956 15.6711 177.175C11.9616 163.943 10.01 158.526 11.7936 149.733C13.28 142.481 15.3609 141.581 18.2173 141.652C20.3137 141.74 22.4039 141.939 24.4794 142.248Z" fill="#F4F4F4"/>
<path d="M60.3979 179.34C54.7304 180.772 53.3991 177.188 52.643 174.221C50.84 167.034 49.8706 160.548 48.5265 156.472C46.9432 151.664 45.2952 150.893 42.9558 149.959C40.2158 148.858 37.8635 151.178 38.7747 157.295C39.8539 164.539 41.2692 169.607 43.9446 178.193C44.649 180.428 46.2258 184.407 48.5975 186.325C51.5186 188.697 55.9259 188.593 62.5887 186.934C65.4322 186.222 68.547 184.517 73.9238 182.003C75.3649 181.355 76.5087 180.882 79.2553 179.586C82.0018 178.29 84.9099 176.132 86.3639 174.026C87.818 171.92 88.0054 170.929 87.7081 170.449C87.3398 169.847 86.6806 169.976 85.9051 170.864C84.7862 172.363 83.4044 173.646 81.8273 174.648C81.8273 174.648 83.6174 172.795 84.5868 171.59C85.4567 170.521 86.1785 169.34 86.7323 168.078C87.2428 166.846 86.1895 165.181 85.3881 166.056C84.5868 166.931 84.2055 167.825 82.7385 169.587C81.9639 170.525 81.081 171.367 80.1083 172.095C81.0176 170.866 81.828 169.566 82.5317 168.207C83.4623 166.302 83.4494 165.324 83.4106 164.682C83.3718 164.041 82.4671 163.276 81.6205 164.488C80.8515 165.583 80.328 167.293 78.5767 169.153C77.2842 170.501 76.1792 171.279 76.1469 170.903C76.1145 170.527 76.9288 169.788 77.3941 168.22C77.8594 166.652 77.3941 164.98 76.5281 164.812C75.6622 164.643 75.8302 164.682 75.1323 166.147C74.4343 167.611 73.3745 168.7 72.5473 170.845C71.83 172.73 71.5068 173.495 70.2144 174.869C68.8637 176.333 65.7876 177.979 60.3979 179.34Z" fill="#FFCEA9"/>
<path d="M40.8617 148.975C44.6487 148.417 47.3241 150.128 48.9914 155.876C50.6587 161.624 51.8349 166.347 51.8349 166.347C50.336 168.513 48.0679 170.023 45.4953 170.566C40.9716 171.668 39.3366 169.497 39.3366 169.497C39.3366 169.497 38.0441 163.47 37.2944 159.368C36.5448 155.267 36.1764 149.687 40.8617 148.975Z" fill="#EDEDED"/>
<path d="M43.2273 122.348C43.2273 122.348 49.2115 113.231 36.2543 111.371C26.9097 110.036 20.8996 116.056 20.2081 122.588C19.5619 128.828 23.3812 135.308 26.1471 137.881C27.4977 138.367 30.4058 138.645 34.2251 136.902C34.378 135.203 34.4362 133.496 34.3996 131.789C34.3996 131.789 29.8436 122.18 43.2273 122.348Z" fill="#111111"/>
<path opacity="0.4" d="M143.537 324C152.085 324 159.015 319.988 159.015 315.038C159.015 310.089 152.085 306.076 143.537 306.076C134.989 306.076 128.06 310.089 128.06 315.038C128.06 319.988 134.989 324 143.537 324Z" fill="#D6D8E5"/>
<path d="M145.838 323.423C154.386 323.423 161.315 319.411 161.315 314.461C161.315 309.512 154.386 305.5 145.838 305.5C137.29 305.5 130.36 309.512 130.36 314.461C130.36 319.411 137.29 323.423 145.838 323.423Z" fill="#D9DCE8"/>
<path d="M130.36 314.319V309.822L135.278 311.474L130.36 314.319Z" fill="#D9DCE8"/>
<path d="M161.302 310.139V314.176L155.635 313.062L161.302 310.139Z" fill="#D9DCE8"/>
<path d="M145.838 318.816C154.386 318.816 161.315 314.804 161.315 309.854C161.315 304.905 154.386 300.892 145.838 300.892C137.29 300.892 130.36 304.905 130.36 309.854C130.36 314.804 137.29 318.816 145.838 318.816Z" fill="#EFF1F9"/>
<path d="M135.691 316.619L134.011 315.647L155.834 303.018L157.508 303.99L135.691 316.619Z" fill="#D3D6E2"/>
<path d="M134.011 315.647V320.248L135.536 321.155L135.749 321.259V316.619L134.011 315.647Z" fill="#C5C8D3"/>
<path opacity="0.4" d="M79.4775 289.108C88.0255 289.108 94.955 285.095 94.955 280.146C94.955 275.196 88.0255 271.184 79.4775 271.184C70.9295 271.184 64 275.196 64 280.146C64 285.095 70.9295 289.108 79.4775 289.108Z" fill="#D6D8E5"/>
<path d="M81.7783 288.531C90.3263 288.531 97.2558 284.519 97.2558 279.569C97.2558 274.62 90.3263 270.607 81.7783 270.607C73.2303 270.607 66.3008 274.62 66.3008 279.569C66.3008 284.519 73.2303 288.531 81.7783 288.531Z" fill="#D9DCE8"/>
<path d="M66.3008 279.42V274.917L71.2187 276.575L66.3008 279.42Z" fill="#D9DCE8"/>
<path d="M112.511 254.84V258.877L106.844 257.756L112.511 254.84Z" fill="#D9DCE8"/>
<path d="M81.7783 283.924C90.3263 283.924 97.2558 279.911 97.2558 274.962C97.2558 270.012 90.3263 266 81.7783 266C73.2303 266 66.3008 270.012 66.3008 274.962C66.3008 279.911 73.2303 283.924 81.7783 283.924Z" fill="#EFF1F9"/>
<path d="M71.6328 281.727L69.959 280.755L91.7761 268.125L93.4564 269.097L71.6328 281.727Z" fill="#D3D6E2"/>
<path d="M69.959 280.755V285.356L71.4777 286.257L71.6909 286.367V281.727L69.959 280.755Z" fill="#C5C8D3"/>
<path opacity="0.4" d="M225.228 298.825C233.776 298.825 240.706 294.813 240.706 289.863C240.706 284.914 233.776 280.901 225.228 280.901C216.68 280.901 209.751 284.914 209.751 289.863C209.751 294.813 216.68 298.825 225.228 298.825Z" fill="#D6D8E5"/>
<path d="M227.522 298.248C236.07 298.248 243 294.236 243 289.286C243 284.337 236.07 280.325 227.522 280.325C218.974 280.325 212.045 284.337 212.045 289.286C212.045 294.236 218.974 298.248 227.522 298.248Z" fill="#D9DCE8"/>
<path d="M212.052 289.144C212.052 289.105 212.052 284.64 212.052 284.64L216.976 286.299L212.052 289.144Z" fill="#D9DCE8"/>
<path d="M242.994 284.964V289.001L237.326 287.88L242.994 284.964Z" fill="#D9DCE8"/>
<path d="M227.522 293.641C236.07 293.641 243 289.629 243 284.679C243 279.73 236.07 275.717 227.522 275.717C218.974 275.717 212.045 279.73 212.045 284.679C212.045 289.629 218.974 293.641 227.522 293.641Z" fill="#EFF1F9"/>
<path d="M217.383 291.444L215.703 290.472L237.52 277.843L239.2 278.815L217.383 291.444Z" fill="#D3D6E2"/>
<path d="M215.703 290.472V295.073L217.228 295.974L217.442 296.084V291.444L215.703 290.472Z" fill="#C5C8D3"/>
<defs>
<filter id="filter0_d_361_4537" x="109.981" y="31.5233" width="86.75" height="81.4586" filterUnits="userSpaceOnUse" color-interpolation-filters="sRGB">
<feFlood flood-opacity="0" result="BackgroundImageFix"/>
<feColorMatrix in="SourceAlpha" type="matrix" values="0 0 0 0 0 0 0 0 0 0 0 0 0 0 0 0 0 0 127 0" result="hardAlpha"/>
<feOffset dy="4"/>
<feGaussianBlur stdDeviation="5"/>
<feColorMatrix type="matrix" values="0 0 0 0 1 0 0 0 0 0.352941 0 0 0 0 0.352941 0 0 0 0.2 0"/>
<feBlend mode="normal" in2="BackgroundImageFix" result="effect1_dropShadow_361_4537"/>
<feBlend mode="normal" in="SourceGraphic" in2="effect1_dropShadow_361_4537" result="shape"/>
</filter>
</defs>
</svg>
