<svg width="301" height="322" viewBox="0 0 301 322" fill="none" xmlns="http://www.w3.org/2000/svg">
<path d="M253.593 248.029L188.224 210.26C182.685 207.067 178.195 198.487 178.195 191.106V8.77892C178.195 1.39857 182.685 -1.9947 188.224 1.20467L253.593 38.9426C259.131 42.142 263.621 50.7221 263.621 58.1025V240.448C263.621 247.829 259.131 251.228 253.593 248.029Z" fill="#B1B4C4"/>
<path d="M254.713 251.319L259.894 248.701L254.925 240.182L254.713 251.319Z" fill="#B1B4C4"/>
<path d="M177.177 3.02243L181.946 0.519897L180.982 7.54881L177.177 3.02243Z" fill="#B1B4C4"/>
<path d="M249.424 250.113L184.055 212.369C178.516 209.176 174.026 200.595 174.026 193.215V10.8633C174.026 3.48298 178.516 0.0897105 184.055 3.28302L249.424 41.0271C254.962 44.2264 259.452 52.8005 259.452 60.1869V242.533C259.452 249.919 254.962 253.312 249.424 250.113Z" fill="#616E84"/>
<path d="M258.736 60.6535V242.981C258.736 250.373 254.252 253.761 248.714 250.567L223.077 235.764L215.109 231.177L183.357 212.835C177.819 209.636 173.335 201.062 173.335 193.676V11.3299C173.335 3.9435 177.819 0.556291 183.357 3.7496L248.732 41.4876C254.27 44.693 258.736 53.261 258.736 60.6535Z" fill="#20232D"/>
<path d="M254.04 58.7751V236.376C254.04 240.842 250.908 242.666 247.03 240.424L226.622 228.651L224.804 227.608L224.198 227.251L219.781 224.706L206.995 217.332L201.693 214.272L199.56 213.06L185.072 204.698C181.2 202.462 178.062 197.02 178.062 192.537V14.9232C178.062 10.4453 181.2 8.63354 185.072 10.8695L210.594 25.6059V25.6786C210.594 29.1628 213.018 33.3983 216.048 35.1374C219.078 36.8764 221.501 35.4646 221.501 31.9865C221.501 31.9865 221.501 31.932 221.501 31.9077L247.03 46.6563C250.908 48.8801 254.04 54.3215 254.04 58.7751Z" fill="white"/>
<path d="M217.518 33.3041C218.327 32.8373 218.325 31.3217 217.516 29.919C216.706 28.5163 215.394 27.7576 214.585 28.2244C213.777 28.6913 213.778 30.2068 214.587 31.6095C215.397 33.0123 216.709 33.7709 217.518 33.3041Z" fill="#2B303F"/>
<path opacity="0.1" d="M216.047 31.7683C215.793 31.6037 215.581 31.3812 215.429 31.1189C215.278 30.8566 215.19 30.5621 215.175 30.2595C215.175 29.7081 215.563 29.4839 216.047 29.7626C216.302 29.9258 216.515 30.1471 216.667 30.4084C216.82 30.6696 216.909 30.9632 216.926 31.2653C216.926 31.8167 216.526 32.0409 216.047 31.7683Z" fill="white"/>
<path d="M261.409 84.6427C260.876 84.9518 260.445 84.6427 260.445 83.9156V76.1414C260.455 75.7846 260.547 75.4349 260.714 75.1196C260.881 74.8042 261.119 74.5318 261.409 74.3236C261.942 74.0145 262.372 74.3236 262.372 75.0568V82.831C262.362 83.1868 262.27 83.5355 262.103 83.8498C261.936 84.1641 261.698 84.4355 261.409 84.6427Z" fill="#757B89"/>
<path d="M261.409 97.3856C260.876 97.6886 260.445 97.3856 260.445 96.6524V88.8782C260.451 88.5164 260.541 88.1608 260.708 87.8399C260.875 87.519 261.115 87.2417 261.409 87.0301C261.942 86.7271 262.372 87.0301 262.372 87.7633V95.5375C262.367 95.8993 262.277 96.2549 262.11 96.5758C261.942 96.8967 261.702 97.174 261.409 97.3856Z" fill="#757B89"/>
<path d="M241.77 225.288L190.356 195.596C187.69 194.057 185.509 189.919 185.509 186.362V90.8899C185.509 87.3269 187.678 85.6909 190.356 87.2542L241.77 116.945C244.443 118.49 246.618 122.623 246.618 126.186V221.682C246.618 225.191 244.424 226.827 241.77 225.288Z" fill="#E9EAF2"/>
<path d="M241.77 164.626L190.356 134.935C187.69 133.396 185.509 129.257 185.509 125.701V30.2286C185.509 26.6657 187.678 25.0297 190.356 26.593L241.77 56.2841C244.443 57.8292 246.618 61.9617 246.618 65.5247V161.021C246.618 164.529 244.424 166.165 241.77 164.626Z" fill="#E9EAF2"/>
<path d="M233.307 150.597C241.279 145.994 241.278 131.068 233.306 117.259C225.333 103.45 212.407 95.9867 204.435 100.589C196.463 105.192 196.463 120.118 204.436 133.927C212.408 147.736 225.334 155.199 233.307 150.597Z" fill="#CED0DB"/>
<path d="M239.084 74.1362L219.197 62.6536V58L239.084 69.4826V74.1362Z" fill="#CED0DB"/>
<path d="M234.497 79.8563L219.197 71.0278V66.3741L234.497 75.2088V79.8563Z" fill="#CED0DB"/>
<path d="M239.085 100.998L194.009 74.9724V70.3248L239.085 96.3439V100.998Z" fill="#CED0DB"/>
<path d="M228.337 165.209L193.665 145.188V140.535L228.337 160.555V165.209Z" fill="#CED0DB"/>
<path d="M238.583 179.497L193.507 153.471V148.818L238.583 174.843V179.497Z" fill="#CED0DB"/>
<path d="M228.185 181.866L193.507 161.846V157.192L228.185 177.212V181.866Z" fill="#CED0DB"/>
<path d="M238.583 196.245L193.507 170.22V165.566L238.583 191.591V196.245Z" fill="#CED0DB"/>
<path d="M238.183 212.757L193.107 186.732V182.084L238.183 208.103V212.757Z" fill="#CED0DB"/>
<path d="M228.185 198.614L193.507 178.594V173.94L228.185 193.96V198.614Z" fill="#CED0DB"/>
<path d="M208.529 61.4532C209.796 59.4172 219.479 58.0781 222.66 66.3007C223.872 69.4092 223.684 77.3591 224.696 82.3582C225.708 87.3572 228.083 90.1809 228.937 94.2346C229.792 98.2883 228.398 105.075 218.636 106.275C208.875 107.474 201.361 104.051 199.058 100.936C196.756 97.8218 196.701 91.2049 199.101 87.6541C201.5 84.1033 203.312 81.2069 203.258 76.5835L208.529 61.4532Z" fill="#2B2A30"/>
<path d="M214.922 60.0415C214.922 60.0415 207.651 57.9389 203.215 61.8594C199.173 65.4586 199.513 70.3425 200.101 72.6633C200.688 74.984 201.864 78.1168 203.694 78.2804C205.524 78.444 214.922 60.0415 214.922 60.0415Z" fill="#2B2A30"/>
<path d="M217.709 79.9164C217.709 79.9164 217.23 88.042 217.376 88.6359C217.521 89.2297 220.569 89.8114 221.417 90.5203C222.266 91.2293 217 99.4701 214.322 100.694C211.644 101.918 203.342 98.7975 202.766 94.6347C202.239 90.8354 205.142 87.8845 206.263 86.8544C207.024 86.7811 207.789 86.7609 208.553 86.7938L208.796 82.8552C212.431 81.7281 217.709 79.9164 217.709 79.9164Z" fill="#FFCEA9"/>
<path d="M198.064 95.2647C198.016 95.0405 196.853 95.695 196.822 95.7131C196.792 95.7313 196.247 116.557 195.217 118.442C192.623 122.871 185.727 130.355 185.558 131.197C185.049 133.724 186.515 131.458 188.884 131.197C190.217 131.033 198.04 123.114 199.791 121.308L199.9 121.375C199.9 121.302 199.9 121.235 199.931 121.169L200.161 120.932C200.225 120.373 200.243 119.81 200.216 119.248C203.469 96.6039 199.47 95.0951 198.064 95.2647Z" fill="#FFCEA9"/>
<path d="M196.289 98.4641L195.877 108.498L195.216 116.406C195.216 116.406 195.344 117.466 194.18 119.321C193.017 121.175 186.8 128.876 186.8 128.876L189.611 131.209L196.016 125.95L200.258 97.6158L198.028 94.8588L196.289 98.4641Z" fill="white"/>
<path d="M218.824 89.4296C221.102 89.781 223.714 90.999 224.071 92.2472C224.489 93.7075 225.392 100.579 223.417 105.808C221.441 111.037 220.108 114.364 218.975 116.612C218.975 116.612 209.098 120.854 201.136 115.909C201.136 115.909 200.591 110.31 200.53 107.311C193.18 100.9 199.464 92.9925 205.687 86.8543C206.432 86.7778 207.182 86.7677 207.929 86.824C207.929 86.824 202.379 93.3924 206.238 97.125C214.534 94.6225 216.176 90.8899 218.824 89.4296Z" fill="#F4F4F4"/>
<path d="M202.531 69.8517C203.355 64.6345 207.124 60.6898 212.504 61.0049C214.669 61.1237 216.742 61.9196 218.43 63.2803C220.118 64.641 221.335 66.4977 221.911 68.588C222.486 70.6784 222.39 72.8966 221.636 74.9294C220.882 76.9621 219.509 78.7066 217.709 79.9163C217.521 80.7072 217.243 81.4737 216.879 82.2007C214.971 84.4185 209.905 85.8364 208.232 85.8364C206.79 85.8364 205.542 84.5033 204.191 82.2613C201.367 77.6077 202.082 72.433 202.531 69.8517Z" fill="#FFCEA9"/>
<path d="M214.171 61.1019C217.946 61.8412 221.054 62.9197 222.078 66.6099C222.781 69.1609 223.696 74.0327 222.823 76.0808L222.278 77.5593L217.709 79.9164C217.709 79.9164 215.576 78.141 216.237 72.9299C216.216 72.2236 215.993 71.538 215.595 70.9545C215.32 70.4602 215.116 69.9299 214.989 69.3791C214.528 67.9248 213.359 66.9553 212.026 66.1736C208.62 64.2649 203.639 65.9131 202.937 66.6039C205.215 61.8896 209.784 60.2415 214.171 61.1019Z" fill="#2B2A30"/>
<path d="M227.568 143.716C226.962 150.308 223.29 178.327 223.29 178.327C224.73 183.043 225.493 187.939 225.556 192.87C225.52 196.948 224.453 203.867 223.248 210.278L221.133 225.518L216.085 222.597L216.285 211.236C216.025 207.43 215.649 201.813 215.407 198.22C215.013 192.379 213.965 183.072 213.662 180.781C213.359 178.491 212.619 174.419 212.262 169.874C211.904 165.33 210.196 142.274 210.196 142.274L209.959 146.594C209.959 146.594 209.735 153.611 208.747 162.251C207.76 170.892 207.378 174.746 207.378 174.746C207.378 174.746 209.129 177.957 209.353 180.327C209.535 182.199 211.668 196.984 210.39 204.51L208.517 218.216L202.458 214.738L201.676 204.952C200.64 197.62 198.453 182.072 198.113 180.048C197.677 177.388 197.313 176.079 196.804 167.717C196.295 159.355 196.483 141.195 197.325 134.608C198.168 128.022 200.598 118.454 200.598 118.454C202.891 119.532 205.374 120.149 207.905 120.272C212.147 120.49 218.964 119.199 218.964 119.199C220.153 121.278 221.454 123.29 222.86 125.229C224.769 127.852 228.441 133.627 227.568 143.716Z" fill="#FFCEA9"/>
<path d="M218.976 116.612L224.647 128.01C224.647 128.01 233.306 140.68 224.332 173.255L226.017 183.302C226.017 183.302 209.051 194.209 197.677 183.302C197.677 183.302 193.732 153.199 195.829 139.317C196.993 131.333 198.761 123.449 201.119 115.734C201.119 115.734 203.9 118.806 218.218 116.776" fill="#FFC618"/>
<path d="M205.711 86.8542C205.711 86.8542 197.313 88.2237 196.289 98.4641L198.21 96.5432C198.21 96.5432 202.918 89.4174 205.711 86.8542Z" fill="white"/>
<path d="M207.954 86.8241C205.785 91.0112 200.077 97.8522 201.695 105.257C203.84 115.128 199.731 174.273 199.731 174.273C199.731 174.273 194.884 171.201 194.884 168.741C194.884 166.281 196.702 102.439 196.702 99.4156C196.702 96.3919 202.01 91.0233 205.615 86.8302C206.569 86.4875 207.577 86.3212 208.59 86.3394C208.59 86.5636 208.59 86.5938 208.56 86.8241C208.378 86.8362 208.275 86.8241 207.954 86.8241Z" fill="white"/>
<path d="M170.524 141.013L189.915 129.743L203.839 137.784L184.443 149.054L170.524 141.013Z" fill="#ADB3BC"/>
<path d="M187.412 130.567C186.2 130.846 184.988 130.937 183.97 131.694C183.594 132.029 183.189 132.329 182.758 132.591C182.564 132.694 182.377 132.815 182.152 132.9C181.855 133.004 181.588 133.181 181.377 133.415C181.157 133.73 181.036 134.103 181.031 134.487C180.937 134.95 180.914 135.424 180.965 135.893C181.134 136.59 181.856 136.535 182.237 136.051C182.43 135.808 182.542 135.512 182.558 135.202C182.568 134.908 182.647 134.62 182.789 134.362C182.931 134.104 183.133 133.883 183.376 133.718L188.012 130.84C187.953 130.737 187.864 130.655 187.756 130.606C187.648 130.557 187.528 130.544 187.412 130.567Z" fill="#FFCEA9"/>
<path d="M225.09 104.863C225.09 104.863 224.932 122.259 225.568 127.889C226.205 133.518 234.233 150.012 227.162 172.389C226.12 173.601 225.162 176.055 216.255 177.085C210.941 177.085 209.014 176.273 209.014 176.273C209.014 176.273 211.068 138.747 208.087 105.796C208.087 96.707 215.904 97.7613 217.352 87.6906C224.253 90.9142 224.259 91.9321 224.259 91.9321L225.09 104.863Z" fill="white"/>
<path opacity="0.1" d="M221.587 91.7382C217.788 92.1623 217.291 96.9796 217.291 96.9796L217.116 104.354C217.116 104.354 217.528 113.758 218.618 116.624L202.137 127.949L205.73 132.136C205.73 132.136 223.145 124.095 224.514 122.823C225.884 121.55 224.514 106.796 224.726 102.548C225.641 94.5255 225.411 91.314 221.587 91.7382Z" fill="black"/>
<path d="M224.313 95.8162C223.671 93.1804 221.605 94.0287 219.829 92.4835C215.703 98.3187 218.442 114.103 218.999 115.788L203.172 125.877C202.918 126.047 202.372 126.38 202.112 126.543C200.676 127.41 197.912 128.913 196.228 129.107C194.64 129.288 193.804 131.53 192.12 131.718C191.991 131.723 191.866 131.765 191.762 131.84C191.657 131.914 191.576 132.018 191.53 132.139C191.484 132.259 191.475 132.39 191.503 132.516C191.532 132.642 191.596 132.756 191.689 132.845C192.368 133.5 194.18 132.96 195.416 131.512C195.413 131.548 195.413 131.585 195.416 131.621C195.411 131.908 195.509 132.187 195.691 132.409C195.873 132.631 196.127 132.781 196.41 132.833C196.41 132.938 196.44 133.041 196.495 133.13C196.582 133.314 196.714 133.474 196.879 133.594C197.045 133.713 197.237 133.789 197.44 133.815C197.524 134.085 197.701 134.318 197.939 134.472C198.177 134.626 198.461 134.691 198.743 134.657C199.103 134.636 199.443 134.481 199.694 134.221C201.044 133.701 202.236 132.841 203.154 131.724C203.969 130.885 204.827 130.089 205.723 129.337C210.019 127.489 222.901 121.987 223.477 121.205C224.313 120.048 225.228 99.5791 224.313 95.8162Z" fill="#FFCEA9"/>
<path d="M220.951 90.4657C217.151 90.8898 216.655 95.7071 216.655 95.7071L216.479 103.075C216.479 103.075 216.891 112.486 217.976 115.352L201.5 126.677L205.093 130.864C205.093 130.864 222.508 122.823 223.847 121.55C225.186 120.278 225.526 107.165 225.756 102.924C226.701 94.9133 224.756 90.0415 220.951 90.4657Z" fill="white"/>
<path opacity="0.4" d="M102.889 290.499C119.441 290.499 132.859 282.751 132.859 273.193C132.859 263.636 119.441 255.888 102.889 255.888C86.3369 255.888 72.9189 263.636 72.9189 273.193C72.9189 282.751 86.3369 290.499 102.889 290.499Z" fill="#D6D8E5"/>
<path d="M81.5357 144.879C81.2024 147.794 77.7243 160.367 78.4696 164.675C79.2149 168.984 91.0974 176.188 91.0974 176.188L92.7456 168.814L86.1651 162.391L87.9405 150.181L81.5357 144.879Z" fill="#FFCEA9"/>
<path d="M90.7282 132.488C89.0315 131.754 85.8806 131.591 84.1113 134.487C82.3419 137.384 80.5484 147.309 80.3848 149.03C80.3848 149.03 82.8388 152.417 86.5169 151.854L90.7282 132.488Z" fill="#FFC618"/>
<path d="M104.295 272.672C106.881 273.384 109.644 273.049 111.984 271.739C113.833 271.793 123.885 267.497 125.255 271.103C126.466 274.272 122.098 277.198 119.771 277.768C114.693 278.98 110.936 281.531 108.894 281.961C107.379 282.282 105.41 282.494 104.198 281.301C102.75 279.871 102.871 274.569 104.295 272.672Z" fill="#50555C"/>
<path d="M108.894 281.089C110.936 280.664 114.693 278.132 119.77 276.902C121.722 276.429 125.078 274.296 125.418 271.751C125.866 274.666 121.94 277.253 119.77 277.774C114.693 278.986 110.936 281.537 108.894 281.967C107.379 282.288 105.41 282.5 104.198 281.307C103.885 280.96 103.657 280.545 103.531 280.095C105.301 281.561 107.379 281.41 108.894 281.089Z" fill="#111111"/>
<path d="M87.9893 265.358C90.5744 266.076 93.3382 265.743 95.6787 264.431C97.5328 264.486 107.579 260.19 108.949 263.825C110.161 266.994 105.792 269.921 103.465 270.491C98.3872 271.703 94.6304 274.254 92.5944 274.684C91.0735 275.005 89.1042 275.217 87.8984 274.017C86.4441 272.551 86.5714 267.249 87.9893 265.358Z" fill="#50555C"/>
<path d="M92.594 273.769C94.63 273.339 98.3868 270.812 103.465 269.582C105.416 269.109 108.773 266.97 109.112 264.431C109.566 267.346 105.634 269.933 103.465 270.454C98.3868 271.666 94.63 274.217 92.594 274.647C91.0731 274.969 89.1038 275.181 87.898 273.981C87.5808 273.637 87.352 273.221 87.2314 272.769C88.9947 274.235 91.0731 274.09 92.594 273.769Z" fill="#111111"/>
<path d="M87.7889 238.049C88.224 234.315 89.0008 230.63 90.1097 227.039C90.1097 227.039 89.4189 217.532 89.0735 208.527C88.6797 198.305 85.1349 189.307 87.9283 181.151L119.474 188.168C119.474 188.168 117.565 228.923 117.141 233.856C116.913 237.695 116.443 241.516 115.735 245.296C114.293 253.209 111.954 272.03 111.954 272.03C108.615 273.969 104.24 272.896 104.24 272.896C104.24 272.896 104.483 249.095 104.695 243.393C104.955 236.431 105.167 236.964 105.167 236.964L104.125 219.628L103.446 211C103.446 211 102.574 217.332 102.004 222.985C101.507 227.917 100.32 232.377 98.9746 241.551C97.8233 249.513 95.9449 265.51 95.9449 265.51C92.6122 267.449 88.0677 265.843 88.0677 265.843C88.0677 265.843 86.8861 244.956 87.7889 238.049Z" fill="#ADB3BC"/>
<path d="M92.3938 132.657C94.8175 132.779 96.5869 133.397 96.8899 132.657C97.1464 131.417 97.3285 130.163 97.4352 128.901C97.1565 128.204 96.9202 127.459 96.9202 127.459C93.8905 125.598 92.9512 122.338 92.5513 118.545C91.8787 112.055 95.3811 106.372 101.871 105.693C107.973 105.087 112.463 109.329 113.656 115.237C114.305 118.139 115.589 123.635 113.85 128.416C112.881 131.088 111.632 133.209 110.378 133.621C109.171 133.586 107.967 133.481 106.773 133.306C106.773 133.306 106.452 135.124 106.227 136.263C106.003 137.402 106.094 138.032 108.397 139.456C110.699 140.88 104.913 143.789 101.125 143.504C97.3383 143.219 93.0967 140.935 91.9272 138.487C90.6366 135.79 90.7456 132.579 92.3938 132.657Z" fill="#FFCEA9"/>
<path d="M95.8721 133.015C95.2056 134.675 96.8962 136.705 101.41 138.123C105.925 139.541 106.325 137.717 106.325 137.717C106.325 137.717 112.941 140.747 115.093 142.231C117.801 144.128 119.001 149.606 119.37 158.852C119.789 169.553 119.825 185.429 119.474 188.168C119.474 188.168 114.414 193.209 107.961 192.676C101.507 192.143 90.5883 186.416 87.9646 181.987C88.0373 172.607 89.1341 171.08 87.6132 165.675C84.1351 153.302 82.3051 148.236 83.9775 140.014C85.3712 133.233 87.3223 132.391 90.0006 132.457C91.9662 132.54 93.9261 132.726 95.8721 133.015Z" fill="#FFFAF3"/>
<path d="M129.551 167.699C124.237 169.038 122.988 165.687 122.279 162.912C120.589 156.192 119.68 150.127 118.42 146.315C116.935 141.819 115.39 141.098 113.196 140.226C110.627 139.196 108.422 141.365 109.276 147.085C110.288 153.859 111.615 158.598 114.123 166.627C114.784 168.717 116.262 172.438 118.486 174.231C121.225 176.449 125.358 176.352 131.605 174.801C134.271 174.134 137.192 172.541 142.233 170.189C143.584 169.584 144.657 169.141 147.232 167.929C149.807 166.717 152.534 164.7 153.897 162.73C155.261 160.761 155.436 159.834 155.158 159.386C154.812 158.822 154.194 158.943 153.467 159.773C152.418 161.175 151.122 162.374 149.644 163.312C149.644 163.312 151.322 161.579 152.231 160.452C153.047 159.453 153.723 158.348 154.243 157.168C154.721 156.017 153.734 154.459 152.982 155.277C152.231 156.095 151.874 156.931 150.498 158.58C149.772 159.456 148.944 160.243 148.032 160.925C148.884 159.775 149.644 158.559 150.304 157.289C151.177 155.508 151.165 154.593 151.128 153.993C151.092 153.393 150.244 152.678 149.45 153.811C148.729 154.835 148.238 156.435 146.596 158.174C145.384 159.434 144.348 160.161 144.317 159.81C144.287 159.458 145.051 158.767 145.487 157.301C145.923 155.835 145.487 154.271 144.675 154.114C143.863 153.956 144.021 153.993 143.366 155.362C142.712 156.732 141.718 157.749 140.942 159.755C140.27 161.518 139.967 162.233 138.755 163.518C137.488 164.887 134.604 166.427 129.551 167.699Z" fill="#FFCEA9"/>
<path d="M111.232 139.304C114.783 138.783 117.292 140.383 118.855 145.758C120.418 151.132 121.521 155.55 121.521 155.55C120.116 157.575 117.989 158.986 115.577 159.494C111.335 160.525 109.802 158.495 109.802 158.495C109.802 158.495 108.59 152.859 107.887 149.024C107.185 145.188 106.839 139.971 111.232 139.304Z" fill="#FFC618"/>
<path d="M113.45 114.406C113.45 114.406 119.061 105.881 106.912 104.142C98.1503 102.894 92.5151 108.523 91.8667 114.631C91.2608 120.466 94.8419 126.525 97.4353 128.931C98.7017 129.385 101.428 129.646 105.01 128.016C105.153 126.427 105.207 124.83 105.173 123.235C105.173 123.235 100.901 114.249 113.45 114.406Z" fill="#111111"/>
<path opacity="0.4" d="M207.504 302.969C215.519 302.969 222.017 299.217 222.017 294.589C222.017 289.961 215.519 286.209 207.504 286.209C199.49 286.209 192.992 289.961 192.992 294.589C192.992 299.217 199.49 302.969 207.504 302.969Z" fill="#D6D8E5"/>
<path d="M209.662 302.43C217.677 302.43 224.174 298.678 224.174 294.05C224.174 289.421 217.677 285.67 209.662 285.67C201.647 285.67 195.149 289.421 195.149 294.05C195.149 298.678 201.647 302.43 209.662 302.43Z" fill="#D9DCE8"/>
<path d="M195.149 293.916V289.711L199.761 291.256L195.149 293.916Z" fill="#D9DCE8"/>
<path d="M224.162 290.008V293.783L218.848 292.741L224.162 290.008Z" fill="#D9DCE8"/>
<path d="M209.662 298.122C217.677 298.122 224.174 294.37 224.174 289.741C224.174 285.113 217.677 281.361 209.662 281.361C201.647 281.361 195.149 285.113 195.149 289.741C195.149 294.37 201.647 298.122 209.662 298.122Z" fill="#EFF1F9"/>
<path d="M200.148 296.068L198.572 295.159L219.035 283.349L220.604 284.258L200.148 296.068Z" fill="#D3D6E2"/>
<path d="M198.572 295.159V299.461L200.002 300.309L200.202 300.406V296.067L198.572 295.159Z" fill="#C5C8D3"/>
<path opacity="0.4" d="M14.5123 287.79C22.5272 287.79 29.0246 284.038 29.0246 279.41C29.0246 274.782 22.5272 271.03 14.5123 271.03C6.49737 271.03 0 274.782 0 279.41C0 284.038 6.49737 287.79 14.5123 287.79Z" fill="#D6D8E5"/>
<path d="M16.6695 287.251C24.6844 287.251 31.1818 283.499 31.1818 278.871C31.1818 274.243 24.6844 270.491 16.6695 270.491C8.65459 270.491 2.15723 274.243 2.15723 278.871C2.15723 283.499 8.65459 287.251 16.6695 287.251Z" fill="#D9DCE8"/>
<path d="M2.15723 278.732V274.52L6.76843 276.071L2.15723 278.732Z" fill="#D9DCE8"/>
<path d="M31.1696 274.829V278.604L25.8555 277.556L31.1696 274.829Z" fill="#D9DCE8"/>
<path d="M16.6695 282.943C24.6844 282.943 31.1818 279.191 31.1818 274.563C31.1818 269.934 24.6844 266.182 16.6695 266.182C8.65459 266.182 2.15723 269.934 2.15723 274.563C2.15723 279.191 8.65459 282.943 16.6695 282.943Z" fill="#EFF1F9"/>
<path d="M7.1563 280.889L5.58691 279.98L26.0435 268.17L27.6189 269.079L7.1563 280.889Z" fill="#D3D6E2"/>
<path d="M5.58691 279.98V284.282L7.01087 285.124L7.21083 285.227V280.889L5.58691 279.98Z" fill="#C5C8D3"/>
<path opacity="0.4" d="M284.101 279.428C292.116 279.428 298.613 275.676 298.613 271.048C298.613 266.42 292.116 262.668 284.101 262.668C276.086 262.668 269.589 266.42 269.589 271.048C269.589 275.676 276.086 279.428 284.101 279.428Z" fill="#D6D8E5"/>
<path d="M147.512 321.069C155.527 321.069 162.025 317.317 162.025 312.688C162.025 308.06 155.527 304.308 147.512 304.308C139.497 304.308 133 308.06 133 312.688C133 317.317 139.497 321.069 147.512 321.069Z" fill="#D9DCE8"/>
<path d="M271.746 270.376C271.746 270.339 271.746 266.164 271.746 266.164L276.363 267.716L271.746 270.376Z" fill="#D9DCE8"/>
<path d="M300.758 266.467V270.242L295.444 269.194L300.758 266.467Z" fill="#D9DCE8"/>
<path d="M147.512 316.76C155.527 316.76 162.025 313.008 162.025 308.38C162.025 303.752 155.527 300 147.512 300C139.497 300 133 303.752 133 308.38C133 313.008 139.497 316.76 147.512 316.76Z" fill="#EFF1F9"/>
<path d="M138.005 314.706L136.43 313.797L156.886 301.987L158.462 302.896L138.005 314.706Z" fill="#D3D6E2"/>
<path d="M136.43 313.797V318.099L137.86 318.942L138.06 319.045V314.706L136.43 313.797Z" fill="#C5C8D3"/>
</svg>
