<svg width="342" height="358" viewBox="0 0 342 358" fill="none" xmlns="http://www.w3.org/2000/svg">
<ellipse cx="171.5" cy="282" rx="153.5" ry="75" fill="#CBDFE1"/>
<path d="M226.967 265.381L158.259 226.652C152.444 223.373 147.721 214.574 147.721 206.998V19.8931C147.765 12.3106 152.466 8.83087 158.281 12.1102L226.967 50.8386C232.834 54.125 237.527 62.9247 237.527 70.5V257.605C237.527 265.18 232.834 268.639 226.967 265.381Z" fill="#B1B4C4"/>
<path d="M228.162 268.753L233.611 266.068L228.389 257.326L228.162 268.753Z" fill="#B1B4C4"/>
<path d="M146.68 13.9789L151.689 11.4156L150.676 18.6258L146.68 13.9789Z" fill="#B1B4C4"/>
<path d="M222.603 267.522L153.903 228.793C148.08 225.514 143.364 216.714 143.364 209.132V22.0267C143.364 14.4586 148.08 10.9717 153.903 14.251L222.603 52.9794C228.426 56.2587 233.142 65.0583 233.142 72.6336V259.746C233.142 267.321 228.433 270.787 222.603 267.522Z" fill="#616E84"/>
<path d="M232.416 73.1134V260.218C232.416 267.794 227.701 271.273 221.878 268.001L194.934 252.808L186.559 248.089L153.17 229.259C147.354 225.972 142.639 217.18 142.639 209.597V22.5065C142.631 14.924 147.354 11.4514 153.17 14.7236L221.878 53.452C227.701 56.7384 232.416 65.5309 232.416 73.1134Z" fill="#20232D"/>
<path d="M227.459 71.2159V253.445C227.459 258.035 224.158 259.889 220.088 257.598L198.608 245.497L196.709 244.423L196.078 244.065L191.436 241.431L178.001 233.87L172.428 230.726L170.184 229.466L154.959 220.874C150.889 218.576 147.589 212.998 147.589 208.394V26.1939C147.589 21.5971 150.889 19.7499 154.959 22.0339L181.785 37.1558V37.2274C181.893 39.1717 182.469 41.0638 183.465 42.7505C184.461 44.4373 185.851 45.8713 187.52 46.9364C190.695 48.7121 193.27 47.2729 193.27 43.7001C193.27 43.7001 193.27 43.6428 193.27 43.6213L220.103 58.7432C224.158 61.0344 227.459 66.6192 227.459 71.2159Z" fill="white"/>
<path d="M189.071 45.0536C189.92 44.5751 189.919 43.0212 189.068 41.5829C188.218 40.1446 186.84 39.3665 185.991 39.8449C185.142 40.3234 185.144 41.8773 185.994 43.3156C186.845 44.7539 188.222 45.532 189.071 45.0536Z" fill="#2B303F"/>
<path opacity="0.1" d="M187.527 43.4782C187.265 43.306 187.047 43.0766 186.892 42.8081C186.737 42.5397 186.648 42.2395 186.632 41.9316C186.632 41.366 187.043 41.1297 187.549 41.4161C187.813 41.5867 188.033 41.8154 188.191 42.0839C188.349 42.3525 188.44 42.6534 188.458 42.9626C188.436 43.5283 188.025 43.7574 187.527 43.4782Z" fill="white"/>
<path d="M235.202 97.7294C234.637 98.0516 234.183 97.7294 234.183 97.0134V89.0085C234.188 88.6363 234.283 88.2706 234.46 87.9409C234.637 87.6113 234.891 87.327 235.202 87.1111C235.759 86.7961 236.214 87.1111 236.214 87.8271V95.8034C236.214 96.1798 236.122 96.5508 235.946 96.8858C235.77 97.2207 235.515 97.5099 235.202 97.7294Z" fill="#757B89"/>
<path d="M235.202 110.804C234.637 111.119 234.183 110.804 234.183 110.052V102.076C234.188 101.704 234.283 101.34 234.46 101.011C234.637 100.683 234.892 100.4 235.202 100.185C235.759 99.8703 236.214 100.185 236.214 100.901V108.885C236.213 109.26 236.121 109.63 235.945 109.963C235.769 110.297 235.514 110.585 235.202 110.804Z" fill="#757B89"/>
<path d="M166.281 41.8742C160.29 38.4947 155.413 41.2442 155.413 48.0032C155.432 49.8849 155.751 51.7522 156.359 53.5379C159.08 61.7791 164.294 71.7959 165.827 74.6742C165.93 74.8758 166.087 75.0465 166.281 75.1683C166.35 75.2135 166.43 75.2377 166.512 75.2377C166.595 75.2377 166.675 75.2135 166.743 75.1683C168.276 74.0227 173.49 69.877 176.211 64.7075C176.876 63.3249 177.2 61.8095 177.157 60.2826C177.157 53.5021 172.28 45.2466 166.281 41.8742ZM166.281 60.4903C164.644 59.4452 163.281 58.04 162.3 56.3875C161.319 54.735 160.749 52.8812 160.635 50.9746C160.635 47.4662 163.172 46.0342 166.281 47.7884C167.927 48.8294 169.299 50.2337 170.287 51.8879C171.274 53.5422 171.849 55.4 171.965 57.3112C171.965 60.8268 169.398 62.2516 166.281 60.4974V60.4903Z" fill="#DADCE5"/>
<path d="M214.207 177.757L160.672 147.577C157.738 145.945 155.421 141.556 155.421 137.783V101.481C155.421 97.708 157.768 95.9753 160.672 97.6078L214.207 127.794C217.14 129.427 219.457 133.809 219.457 137.589V173.883C219.457 177.657 217.111 179.396 214.207 177.757Z" fill="#E9EAF2"/>
<path d="M216.832 77.3449L188.231 61.2206C186.764 60.4044 185.605 58.2134 185.605 56.3232V56.1728C185.605 54.2897 186.779 53.4234 188.231 54.2396L216.832 70.3639C218.298 71.1802 219.457 73.3711 219.457 75.2614V75.4117C219.457 77.2948 218.284 78.1827 216.832 77.3449Z" fill="#E9EAF2"/>
<path d="M216.832 90.777L188.231 74.6456C186.764 73.8293 185.605 71.6384 185.605 69.7553V69.5906C185.605 67.7004 186.779 66.834 188.231 67.6503L216.832 83.7817C218.298 84.598 219.457 86.7889 219.457 88.672V88.8224C219.457 90.7269 218.284 91.5933 216.832 90.777Z" fill="#E9EAF2"/>
<path d="M216.832 104.975L188.231 88.8511C186.764 88.0348 185.605 85.8367 185.605 83.9536V83.8033C185.605 81.913 186.779 81.0467 188.231 81.8629L216.832 97.9944C218.298 98.8106 219.457 101.002 219.457 102.892V103.042C219.457 104.925 218.284 105.792 216.832 104.975Z" fill="#E9EAF2"/>
<path d="M216.832 119.174L158.032 86.0586C156.565 85.2424 155.406 83.0514 155.406 81.1683V81.018C155.406 79.1277 156.58 78.2614 158.032 79.0776L216.825 112.221C218.291 113.037 219.45 115.228 219.45 117.119V117.269C219.457 119.123 218.284 119.99 216.832 119.174Z" fill="#E9EAF2"/>
<path d="M216.832 195.034L158.032 161.89C156.565 161.074 155.406 158.883 155.406 156.993V156.842C155.406 154.959 156.58 154.093 158.032 154.909L216.825 188.053C218.291 188.869 219.45 191.06 219.45 192.95V193.093C219.457 194.984 218.284 195.85 216.832 195.034Z" fill="#E9EAF2"/>
<path d="M216.832 210.356L158.032 177.213C156.565 176.396 155.406 174.205 155.406 172.315V172.165C155.406 170.282 156.58 169.408 158.032 170.232L216.825 203.368C218.291 204.191 219.45 206.382 219.45 208.265V208.416C219.457 210.306 218.284 211.172 216.832 210.356Z" fill="#E9EAF2"/>
<path d="M216.832 225.679L158.032 192.535C156.565 191.712 155.406 189.521 155.406 187.638V187.487C155.406 185.597 156.58 184.731 158.032 185.547L216.825 218.69C218.291 219.507 219.45 221.698 219.45 223.588V223.738C219.457 225.621 218.284 226.495 216.832 225.679Z" fill="#E9EAF2"/>
<path d="M191.157 226.523L158.692 208.223C157.225 207.406 156.066 205.215 156.066 203.325V203.175C156.066 201.292 157.247 200.418 158.692 201.242L191.157 219.535C192.624 220.352 193.783 222.55 193.783 224.433V224.583C193.783 226.466 192.602 227.34 191.157 226.523Z" fill="#E9EAF2"/>
<path d="M219.017 305.742L185.202 286.682L219.017 267.622L252.832 286.682L219.017 305.742Z" fill="#EFDA86"/>
<path d="M250.544 325.646L219.018 343.418V307.875L250.544 290.104V325.646Z" fill="#D1B66B"/>
<path d="M219.017 343.418L187.49 325.646V290.104L219.017 307.875V343.418Z" fill="#E2C979"/>
<path opacity="0.1" d="M187.49 290.104V299.405L219.017 316.969V307.911L187.49 290.104Z" fill="black"/>
<path opacity="0.1" d="M250.544 290.104V300.064L219.018 316.969V307.911L250.544 290.104Z" fill="black"/>
<path d="M185.202 286.682V296.541L219.017 315.343V305.742L185.202 286.682Z" fill="#E2C979"/>
<path d="M219.018 315.343L252.833 297.314V286.682L219.018 305.742V315.343Z" fill="#D1B66B"/>
<path opacity="0.05" d="M218.863 296.842L202.487 287.398L220.22 277.402L236.596 286.846L218.863 296.842Z" fill="black"/>
<path d="M220.99 275.92L203.25 265.925L220.99 255.922L238.722 265.925L220.99 275.92Z" fill="#EFDA86"/>
<path d="M237.52 286.36L220.99 295.675V277.037L237.52 267.715V286.36Z" fill="#D1B66B"/>
<path d="M220.99 295.675L204.453 286.36V267.715L220.99 277.037V295.675Z" fill="#E2C979"/>
<path opacity="0.1" d="M204.453 267.715V272.591L220.99 281.806V277.052L204.453 267.715Z" fill="black"/>
<path opacity="0.1" d="M237.52 267.715V272.942L220.99 281.806V277.052L237.52 267.715Z" fill="black"/>
<path d="M203.25 265.925V271.094L220.99 280.954V275.92L203.25 265.925Z" fill="#E2C979"/>
<path d="M220.99 280.954L238.723 271.495V265.925L220.99 275.92V280.954Z" fill="#D1B66B"/>
<path opacity="0.4" d="M257.628 353.635L233.721 340.217L251.849 329.993L275.749 343.418L257.628 353.635Z" fill="#D6D8E5"/>
<path d="M260.408 331.811L235.371 317.678L253.5 307.46L278.536 321.594L260.408 331.811Z" fill="#EFDA86"/>
<path d="M277.312 342.48L260.408 352.01V332.95L277.312 323.427V342.48Z" fill="#D1B66B"/>
<path d="M260.408 352.01L236.596 338.563V319.51L260.408 332.95V352.01Z" fill="#E2C979"/>
<path opacity="0.1" d="M236.596 319.51V324.501L260.408 337.826V332.971L236.596 319.51Z" fill="black"/>
<path opacity="0.1" d="M277.312 323.427V328.768L260.408 337.826V332.971L277.312 323.427Z" fill="black"/>
<path d="M235.371 317.677V322.962L260.408 336.959V331.811L235.371 317.677Z" fill="#E2C979"/>
<path d="M260.408 336.959L278.537 327.293V321.594L260.408 331.811V336.959Z" fill="#D1B66B"/>
<path d="M69.2441 154.165C70.4835 156.928 73.9596 169.917 76.9077 173.325C79.8558 176.733 94.5082 177.041 94.5082 177.041L92.1175 169.644L82.7305 167.31L77.8977 155.546L69.2441 154.165Z" fill="#FFCEA9"/>
<path d="M88.5384 165.47C82.9503 166.845 81.6376 163.401 80.8969 160.551C79.1222 153.656 78.0075 168.284 80.3469 170.124C83.2289 172.401 84.1603 174.356 90.7312 172.759C93.5326 172.043 96.598 170.439 101.915 168.026C103.338 167.382 104.445 166.945 107.173 165.706C109.901 164.468 112.746 162.391 114.177 160.365C115.607 158.339 115.805 157.394 115.511 156.928C115.145 156.348 114.492 156.477 113.729 157.329C112.623 158.766 111.262 159.998 109.71 160.967C109.71 160.967 111.47 159.184 112.431 158.024C113.288 156.998 113.998 155.863 114.543 154.651C115.049 153.47 114.008 151.873 113.216 152.711C112.424 153.549 112.05 154.408 110.605 156.105C109.843 157.004 108.974 157.812 108.016 158.511C108.912 157.327 109.709 156.074 110.4 154.766C111.015 153.741 111.318 152.566 111.272 151.379C111.228 150.756 110.341 150.026 109.498 151.193C108.764 152.246 108.258 153.892 106.498 155.675C105.222 156.971 104.137 157.709 104.108 157.351C104.078 156.993 104.878 156.284 105.332 154.78C105.787 153.277 105.332 151.68 104.482 151.508C103.631 151.336 103.792 151.379 103.103 152.79C102.414 154.2 101.372 155.239 100.565 157.293C100.133 158.745 99.3454 160.072 98.27 161.16C96.8913 162.585 93.8553 164.16 88.5384 165.47Z" fill="#FFCEA9"/>
<path opacity="0.4" d="M95.3003 301.696C112.696 301.696 126.798 293.746 126.798 283.94C126.798 274.133 112.696 266.183 95.3003 266.183C77.9047 266.183 63.8027 274.133 63.8027 283.94C63.8027 293.746 77.9047 301.696 95.3003 301.696Z" fill="#D6D8E5"/>
<path d="M80.3473 137.697C79.133 137.146 77.7536 137.05 76.4716 137.427C75.1896 137.805 74.0947 138.63 73.3951 139.744C71.5544 142.723 69.6404 152.919 69.4717 154.659C69.4717 154.659 72.0457 158.138 75.9179 157.558L80.3473 137.697Z" fill="#EDEDED"/>
<path d="M94.6181 281.67C97.3321 282.393 100.228 282.048 102.685 280.71C104.628 280.768 115.203 276.35 116.619 280.059C117.88 283.309 113.297 286.317 110.855 286.897C105.508 288.164 101.563 290.763 99.4142 291.193C97.8155 291.522 95.7475 291.744 94.4714 290.512C92.99 289.052 93.122 283.603 94.6181 281.67Z" fill="#2B2A30"/>
<path d="M99.4579 290.305C101.607 289.861 105.552 287.262 110.898 286.009C112.944 285.529 116.479 283.338 116.838 280.725C117.308 283.718 113.172 286.374 110.898 286.911C105.552 288.178 101.607 290.777 99.4579 291.207C97.8591 291.536 95.7911 291.758 94.515 290.527C94.185 290.171 93.9462 289.744 93.8184 289.281C95.6957 290.785 97.8958 290.634 99.4579 290.305Z" fill="#BF4B4B"/>
<path d="M77.4651 274.145C80.1778 274.875 83.0757 274.532 85.532 273.192C87.4828 273.25 98.0504 268.832 99.4658 272.541C100.72 275.792 96.1437 278.799 93.6943 279.379C88.3555 280.646 84.4027 283.245 82.2613 283.675C80.6626 284.004 78.5945 284.226 77.3185 282.994C75.8444 281.527 75.9764 276.085 77.4651 274.145Z" fill="#2B2A30"/>
<path d="M82.3129 282.787C84.4543 282.343 88.4071 279.744 93.7459 278.491C95.7993 278.011 99.3267 275.82 99.6861 273.207C100.163 276.2 96.0193 278.856 93.7459 279.393C88.4071 280.66 84.4543 283.259 82.3129 283.689C80.7142 284.018 78.6461 284.24 77.3701 283.009C77.0295 282.655 76.7784 282.228 76.6367 281.763C78.5288 283.267 80.7142 283.116 82.3129 282.787Z" fill="#BF4B4B"/>
<path d="M77.2598 246.099C77.7148 242.265 78.5323 238.48 79.7019 234.793C79.7019 234.793 78.9685 225.034 78.6092 215.783C78.1912 205.287 74.4657 196.051 77.4065 187.673L110.583 194.891C110.583 194.891 108.574 236.741 108.134 241.81C107.894 245.752 107.404 249.676 106.667 253.56C105.149 261.686 102.693 281.011 102.693 281.011C99.1798 283.002 94.5743 281.899 94.5743 281.899C94.5743 281.899 94.831 257.462 95.0583 251.605C95.3297 244.445 95.557 245.003 95.557 245.003L94.457 227.197L93.7236 218.34C93.7236 218.34 92.8069 224.841 92.2129 230.648C91.6922 235.71 90.4382 240.285 89.0375 249.715C87.8274 257.891 85.8547 274.316 85.8547 274.316C82.3493 276.307 77.5825 274.653 77.5825 274.653C77.5825 274.653 76.3064 253.194 77.2598 246.099Z" fill="#FF5A5A"/>
<path d="M82.1074 137.868C84.6302 137.99 86.5076 138.627 86.8302 137.868C87.0991 136.597 87.2902 135.31 87.4022 134.016C87.1089 133.3 86.8596 132.534 86.8596 132.534C83.6915 130.622 82.6868 127.279 82.2688 123.377C81.5354 116.711 85.2462 110.882 92.0737 110.181C98.4906 109.529 103.206 113.932 104.467 119.976C105.149 122.961 106.499 128.603 104.673 133.515C103.653 136.257 102.333 138.434 101.006 138.864C99.7341 138.829 98.4655 138.719 97.2072 138.534C97.2072 138.534 96.8625 140.382 96.6278 141.57C96.3932 142.759 96.4885 143.389 98.9086 144.842C101.329 146.296 95.2418 149.296 91.2744 149.002C87.3069 148.709 82.8188 146.36 81.5941 143.854C80.252 141.09 80.3694 137.79 82.1074 137.868Z" fill="#FFCEA9"/>
<path d="M85.7595 138.241C85.0628 139.945 86.8375 142.028 91.5823 143.482C96.3271 144.935 96.7524 143.067 96.7524 143.067C96.7524 143.067 103.712 146.16 105.978 147.706C108.831 149.647 110.092 155.274 110.474 164.769C110.921 175.759 110.958 192.062 110.584 194.876C110.584 194.876 105.259 200.053 98.4465 199.509C91.6336 198.965 80.1786 193.065 77.3992 188.533C77.4725 178.895 78.6239 177.327 77.0252 171.778C73.3584 159.069 71.4444 153.878 73.2191 145.422C74.6858 138.463 76.7392 137.596 79.5553 137.668C81.6324 137.749 83.7036 137.94 85.7595 138.241Z" fill="#F0F3F7"/>
<path d="M121.18 173.855C115.592 175.229 114.279 171.792 113.546 168.943C111.764 162.041 110.803 155.811 109.483 151.895C107.921 147.277 106.286 146.539 103.983 145.637C101.284 144.584 98.9667 146.811 99.8614 152.69C100.925 159.642 102.318 164.525 104.995 172.738C105.684 174.886 107.246 178.702 109.586 180.549C112.468 182.826 116.809 182.697 123.38 181.129C126.189 180.413 130.85 178.246 136.167 175.826C137.589 175.182 138.697 174.752 141.425 173.506C144.153 172.26 146.998 170.191 148.436 168.172C149.873 166.153 150.057 165.193 149.763 164.735C149.397 164.155 148.744 164.284 147.981 165.136C146.874 166.571 145.513 167.8 143.962 168.766C143.962 168.766 145.722 166.983 146.683 165.831C147.541 164.805 148.251 163.671 148.795 162.458C149.301 161.277 148.26 159.673 147.468 160.511C146.676 161.348 146.302 162.215 144.857 163.905C144.094 164.805 143.225 165.615 142.268 166.318C143.163 165.13 143.96 163.876 144.652 162.566C145.268 161.541 145.571 160.366 145.524 159.179C145.48 158.563 144.593 157.833 143.757 159C143.024 160.045 142.51 161.692 140.75 163.475C139.474 164.771 138.389 165.516 138.36 165.158C138.33 164.8 139.13 164.084 139.584 162.58C140.039 161.076 139.584 159.48 138.734 159.308C137.883 159.136 138.044 159.179 137.362 160.59C136.68 162 135.624 163.038 134.817 165.1C134.382 166.558 133.587 167.888 132.5 168.974C131.136 170.399 126.497 172.551 121.18 173.855Z" fill="#FFCEA9"/>
<path d="M101.915 144.699C105.648 144.162 108.288 145.802 109.938 151.322C111.588 156.842 112.732 161.346 112.732 161.346C111.258 163.429 109.022 164.882 106.484 165.406C102.018 166.458 100.412 164.375 100.412 164.375C100.412 164.375 99.1727 158.589 98.4027 154.651C97.6327 150.713 97.2954 145.365 101.915 144.699Z" fill="#EDEDED"/>
<path d="M104.254 119.124C104.254 119.124 110.121 110.374 97.368 108.591C88.1498 107.302 82.2316 113.08 81.5496 119.331C80.8895 125.324 84.6737 131.546 87.4164 134.016C88.7511 134.482 91.6185 134.732 95.3806 133.078C95.5348 131.446 95.5935 129.806 95.5566 128.167C95.5566 128.167 91.0538 118.995 104.254 119.124Z" fill="#2B2A30"/>
<path d="M198.608 245.497L196.709 244.423L196.078 244.065C196.668 243.94 197.221 243.683 197.691 243.314C197.889 243.292 198.278 244.295 198.608 245.497Z" fill="#38226D"/>
<path d="M197.824 243.894C197.48 244.122 197.105 244.301 196.709 244.423L191.436 241.431C190.351 236.483 187.909 225.299 186.603 219.5C184.902 211.931 184.608 207.564 183.728 202.874C182.665 197.196 180.362 170.697 180.362 170.697L179.453 170.747L177.004 200.654C177.754 202.862 178.271 205.139 178.544 207.449C179.072 211.28 178.338 227.182 178.001 233.862L172.427 230.712L170.183 229.452C168.387 219.621 165.365 202.645 165.365 199.187C165.365 195.922 165.945 152.833 165.945 152.833L197.809 160.809C197.706 164.189 196.621 178.859 196.144 186.635C195.667 194.411 195.55 203.927 195.55 203.927C195.55 203.927 196.922 209.583 197.809 216.242C198.696 222.901 197.824 243.894 197.824 243.894Z" fill="#37B9C5"/>
<path d="M189.566 95.474C189.566 95.474 189.177 102.842 189.346 103.493C189.514 104.145 192.807 106.307 193.746 107.073C194.684 107.839 188.524 113.796 185.525 115.143C182.525 116.489 172.999 112.944 172.83 108.376C172.662 103.808 174.458 99.9848 175.918 99.7843C177.377 99.5838 189.566 95.474 189.566 95.474Z" fill="#FFCEA9"/>
<path d="M168.856 109.142C168.416 105.899 170.601 102.813 168.475 100.221C161.024 107.381 161.977 126.226 160.283 138.298C154.746 143.947 143.628 149.511 140.482 150.885C139.91 151.143 139.412 151.415 139.529 152.009C139.976 154.365 140.673 155.26 142.118 157.537C149.451 154.437 154.783 152.661 163.972 144.133C164.842 143.211 165.623 142.211 166.304 141.148C168.951 133.451 169.611 114.763 168.856 109.142Z" fill="#FFCEA9"/>
<path d="M190.373 104.768C190.373 104.768 184.895 112.737 177.246 113.481C174.84 111.169 174.62 102.913 177.979 100.278C177.979 100.278 174.914 97.8583 172.845 98.3308C170.593 99.6648 168.917 101.755 168.13 104.209C166.162 109.685 165.225 115.463 165.365 121.264C165.497 129.083 165.365 152.976 165.365 152.976C165.365 152.976 166.443 158.031 173.352 161.79C180.26 165.549 185.401 165.914 190.087 164.847C193.951 163.967 197.149 162.635 198.484 159.893C198.139 154.415 195.631 140.109 196.569 133.222C197.508 126.334 198.997 121.186 199.378 115.615C199.76 110.045 198.645 110.152 195.763 108.169C194.052 106.911 192.25 105.774 190.373 104.768Z" fill="#D1D5DB"/>
<path d="M172.442 84.4833C173.344 78.7553 177.575 74.4593 183.611 74.7528C186.045 74.8688 188.38 75.7291 190.285 77.212C192.191 78.6949 193.57 80.7253 194.229 83.016C194.887 85.3066 194.791 87.7414 193.955 89.9758C193.118 92.2103 191.582 94.1312 189.566 95.4667C189.352 96.3344 189.037 97.1752 188.627 97.9727C186.493 100.414 180.025 101.918 178.169 101.66C175.786 101.324 174.503 100.357 173.359 97.808C171.32 93.3187 171.965 87.3115 172.442 84.4833Z" fill="#FFCEA9"/>
<path d="M189.566 95.4668L189.009 90.4548C189.009 90.4548 193.189 79.901 183.318 81.9273C176.806 83.2662 175.17 83.8461 173.183 79.5788C171.195 75.3114 178.192 71.4737 186.493 72.5405C189.351 72.8342 191.993 74.1648 193.894 76.2691C195.795 78.3734 196.818 81.0979 196.76 83.9034C196.511 87.0681 195.653 93.4191 189.566 95.4668Z" fill="#50555C"/>
<path d="M161.772 140.052L138.642 127.014L161.772 113.975L184.902 127.014L161.772 140.052Z" fill="#EFDA86"/>
<path opacity="0.4" d="M159.864 134.031C165.332 134.031 169.764 131.626 169.764 128.661C169.764 125.695 165.332 123.291 159.864 123.291C154.396 123.291 149.964 125.695 149.964 128.661C149.964 131.626 154.396 134.031 159.864 134.031Z" fill="#D6D8E5"/>
<path d="M161.331 134.031C166.799 134.031 171.231 131.466 171.231 128.303C171.231 125.139 166.799 122.575 161.331 122.575C155.863 122.575 151.431 125.139 151.431 128.303C151.431 131.466 155.863 134.031 161.331 134.031Z" fill="#D9DCE8"/>
<path d="M151.431 128.303C151.431 128.278 151.431 125.439 151.431 125.439L154.364 126.486L151.431 128.303Z" fill="#D9DCE8"/>
<path d="M171.231 125.439V128.303L167.564 127.51L171.231 125.439Z" fill="#D9DCE8"/>
<path d="M161.331 131.167C166.799 131.167 171.231 128.602 171.231 125.439C171.231 122.275 166.799 119.711 161.331 119.711C155.863 119.711 151.431 122.275 151.431 125.439C151.431 128.602 155.863 131.167 161.331 131.167Z" fill="#EFF1F9"/>
<path d="M154.729 129.735L153.631 129.122L167.933 121.143L169.031 121.755L154.729 129.735Z" fill="#D3D6E2"/>
<path d="M153.631 129.019V131.951L154.274 132.528L154.364 132.599V129.637L153.631 129.019Z" fill="#C5C8D3"/>
<path d="M183.339 153.67L161.771 165.828V141.513L183.339 129.355V153.67Z" fill="#D1B66B"/>
<path d="M161.772 165.828L140.204 153.67V129.355L161.772 141.513V165.828Z" fill="#E2C979"/>
<path opacity="0.1" d="M140.204 129.355V135.713L161.772 147.735V141.534L140.204 129.355Z" fill="black"/>
<path opacity="0.1" d="M183.339 129.355V136.171L161.771 147.735V141.534L183.339 129.355Z" fill="black"/>
<path d="M138.642 127.014V133.759L161.772 146.618V140.052L138.642 127.014Z" fill="#E2C979"/>
<path d="M161.771 146.618L184.902 134.288V127.014L161.771 140.052V146.618Z" fill="#D1B66B"/>
<path d="M201.087 112.329C198.22 111.527 200.405 112.193 198.22 111.527C190.769 118.687 191.7 130.859 190.006 142.966C185.9 149.604 170.631 158.604 170.631 158.604C170.44 159.885 170.902 160.272 172.552 162.9C179.886 159.799 186.068 157.129 195.286 148.58C195.646 148.243 196.181 148.157 196.335 147.692C198.931 139.988 201.843 117.942 201.087 112.329Z" fill="#FFCEA9"/>
<path d="M174.473 158.869C174.106 157.608 173.168 157.916 172.119 158.238C170.974 158.686 169.718 158.791 168.511 158.539C167.514 158.238 166.788 157.394 165.937 156.835C165.442 156.552 164.882 156.397 164.309 156.384C164.36 156.706 164.866 158.589 164.866 158.589C164.866 158.589 159.535 158.639 158.999 158.532C158.816 158.496 158.625 158.516 158.454 158.591C158.284 158.666 158.141 158.792 158.047 158.95C157.953 159.108 157.913 159.291 157.931 159.473C157.949 159.655 158.025 159.827 158.149 159.964C158.031 159.964 157.907 159.964 157.789 159.914C156.697 159.678 156.235 161.346 157.327 161.554C157.621 161.618 157.921 161.647 158.222 161.682C157.489 161.955 157.327 163.114 158.222 163.272L158.501 163.315C158.623 163.365 158.757 163.384 158.889 163.372H159.058C159.034 163.497 159.036 163.624 159.064 163.748C159.092 163.872 159.145 163.989 159.22 164.092C159.296 164.195 159.392 164.282 159.502 164.348C159.613 164.413 159.736 164.457 159.865 164.475C162.468 164.804 166.304 165.821 168.665 163.723C170.3 163.569 171.896 163.148 173.388 162.477C174.898 161.804 174.898 160.379 174.473 158.869Z" fill="#FFCEA9"/>
<path d="M147.838 153.284C147.713 153.284 147.596 153.284 147.471 153.284C147.624 153.177 147.738 153.025 147.797 152.851C147.857 152.677 147.859 152.49 147.803 152.315C147.747 152.139 147.636 151.986 147.485 151.876C147.335 151.766 147.153 151.705 146.965 151.702C146.408 151.702 140.915 150.585 140.915 150.585L140.255 148.379C140.218 148.258 139.302 148.816 139.272 148.845C138.808 149.141 138.418 149.536 138.132 150C137.845 150.463 137.668 150.983 137.615 151.523C137.584 152.28 137.708 153.036 137.978 153.746C138.249 154.456 138.661 155.107 139.192 155.661C140.177 156.634 141.509 157.198 142.91 157.236C143.577 157.279 144.215 157.308 144.794 157.351C144.924 157.361 145.053 157.344 145.176 157.303C145.298 157.262 145.41 157.197 145.506 157.112C145.602 157.027 145.678 156.923 145.731 156.808C145.784 156.692 145.812 156.568 145.814 156.441H145.983C146.116 156.468 146.253 156.468 146.386 156.441H146.665C147.596 156.441 147.669 155.31 147.031 154.895C147.332 154.895 147.633 154.952 147.933 154.952C149.055 154.974 148.96 153.277 147.838 153.284Z" fill="#FFCEA9"/>
<path d="M165.746 113.983C165.746 113.983 162.938 113.847 161.771 112.243C161.984 109.508 165.57 99.1113 172.772 98.338C170.806 99.6803 169.248 101.516 168.262 103.651C166.971 106.78 165.746 113.983 165.746 113.983Z" fill="#ADB3BC"/>
<path d="M202.385 127.715C202.385 127.715 195.198 130.135 190.138 126.069C189.588 125.138 193.071 113.181 193.071 113.181C193.071 113.181 196.086 107.08 200.808 109.507C205.531 111.935 202.385 127.715 202.385 127.715Z" fill="#ADB3BC"/>
</svg>
