<svg width="56" height="95" viewBox="0 0 56 95" fill="none" xmlns="http://www.w3.org/2000/svg">
<path opacity="0.4" d="M27.0345 95C41.9652 95 54.069 88.2464 54.069 79.9155C54.069 71.5846 41.9652 64.8311 27.0345 64.8311C12.1038 64.8311 0 71.5846 0 79.9155C0 88.2464 12.1038 95 27.0345 95Z" fill="#D6D8E5"/>
<path d="M54.0691 25.0338H4.50586C4.50586 25.0338 4.67515 67.3053 4.54753 75.3261C4.51457 75.6867 4.505 76.0491 4.51888 76.411C4.51888 76.487 4.51888 76.5446 4.50586 76.5813H4.5267C4.72203 80.1083 7.13118 83.5986 11.7645 86.2897C21.4402 91.9103 37.14 91.9103 46.8026 86.3028C51.436 83.6117 53.8347 80.1214 54.0404 76.5944H54.0691V25.0338Z" fill="#FF5A5A"/>
<path d="M29.2875 39.1554C42.974 39.1554 54.0691 32.6892 54.0691 24.7128C54.0691 16.7364 42.974 10.2703 29.2875 10.2703C15.601 10.2703 4.50586 16.7364 4.50586 24.7128C4.50586 32.6892 15.601 39.1554 29.2875 39.1554Z" fill="white"/>
<path d="M55.3598 27.1043C55.0986 27.7892 54.7675 28.4454 54.3718 29.0626C53.5811 30.2825 52.612 31.3773 51.4967 32.3106C51.1674 32.6004 50.8198 32.8798 50.4512 33.1539C49.7179 33.7026 48.9515 34.2058 48.1564 34.6605C47.9839 34.7597 47.814 34.8563 47.6337 34.9503C47.2808 35.1461 46.9149 35.3367 46.5411 35.5169C45.6499 35.9529 44.7116 36.355 43.7523 36.7127C43.3942 36.8484 43.0336 36.9738 42.665 37.0991C41.7424 37.4098 40.7936 37.6813 39.8213 37.9215C39.4946 38.0051 39.1653 38.0834 38.8334 38.1539C37.882 38.3663 36.9184 38.5403 35.9426 38.6761C35.6107 38.7257 35.2813 38.7727 34.9494 38.8119C33.9928 38.9285 33.0344 39.0155 32.0743 39.073C31.745 39.0913 31.4157 39.1095 31.0811 39.1174C30.1193 39.1591 29.1548 39.1644 28.2061 39.1435C27.8741 39.1435 27.5448 39.1252 27.2128 39.1095C26.2458 39.0651 25.2813 38.9947 24.3221 38.8876C23.9902 38.851 23.6582 38.8145 23.3289 38.7675C22.3566 38.6422 21.3921 38.4803 20.4408 38.2897C20.1088 38.2244 19.7769 38.1513 19.4502 38.0782C18.4657 37.8537 17.503 37.5926 16.562 37.2949C16.2301 37.1905 15.8955 37.0808 15.5688 36.9685C14.573 36.6239 13.6059 36.2375 12.6781 35.8093C12.3435 35.6578 12.0116 35.4986 11.6901 35.3341C11.2493 35.1113 10.8189 34.8789 10.3989 34.637C9.83437 34.3106 9.30379 33.9764 8.79935 33.6265C8.45434 33.3941 8.12239 33.1513 7.80613 32.9033C6.72865 32.0785 5.75766 31.1234 4.91539 30.06C4.55283 29.5964 4.22356 29.1078 3.93002 28.5978C0.856315 23.2427 3.01262 17.1096 10.3989 12.8485C20.8276 6.8433 37.7408 6.8433 48.1747 12.8485C51.1099 14.5404 53.2139 16.5247 54.4999 18.6422C54.8416 19.2024 55.1321 19.7923 55.3676 20.4046C56.2141 22.5583 56.2113 24.9526 55.3598 27.1043Z" fill="#EF990F"/>
<path d="M2.5752 23.1081C2.5752 22.9831 2.5752 16.0472 2.5752 16.0472L10.943 19.5776L2.5752 23.1081Z" fill="#EF990F"/>
<path d="M55.9995 16.0472L55.9918 23.1599L51.201 26.9594L48.2754 20.4367L55.9995 16.0472Z" fill="#EF990F"/>
<path d="M5.14954 19.8987V30.169C4.9127 29.6868 4.69761 29.1786 4.50586 28.6482V19.8987H5.14954Z" fill="#DD8910"/>
<path d="M9.01184 22.4662V32.7365C8.78825 32.5067 8.57312 32.2666 8.36816 32.0213V22.4662H9.01184Z" fill="#DD8910"/>
<path d="M12.8732 26.3176V35.3041C12.6552 35.1663 12.4389 35.0214 12.2295 34.8717V26.3176H12.8732Z" fill="#DD8910"/>
<path d="M16.7356 26.9595V36.5878C16.3053 36.4891 15.8717 36.3854 15.4482 36.2792V26.9718L16.7356 26.9595Z" fill="#DD8910"/>
<path d="M20.5979 28.2433V37.2298C20.1665 37.1701 19.7351 37.1032 19.3105 37.0363V28.2433H20.5979Z" fill="#DD8910"/>
<path d="M23.8165 28.8851V39.1554C23.6014 39.1156 23.3863 39.0758 23.1729 39.0247V28.8851H23.8165Z" fill="#DD8910"/>
<path d="M27.6779 28.8851V39.1554C27.4627 39.1554 27.2493 39.136 27.0342 39.1194V28.8851H27.6779Z" fill="#DD8910"/>
<path d="M32.8275 28.8851V39.1082C32.1872 39.1277 31.5469 39.1471 30.8965 39.1554V28.8935L32.8275 28.8851Z" fill="#DD8910"/>
<path d="M35.4026 28.8851V38.379C34.9723 38.4281 34.5455 38.4747 34.1152 38.5135V28.8851H35.4026Z" fill="#DD8910"/>
<path d="M39.9083 28.2433V37.0227C39.6955 37.0972 39.4809 37.167 39.2646 37.2298V28.2433H39.9083Z" fill="#DD8910"/>
<path d="M43.7697 26.3176V36.2073C43.5577 36.341 43.3441 36.4645 43.126 36.5879V26.3176H43.7697Z" fill="#DD8910"/>
<path d="M47.6321 24.3918V34.7431C47.2163 34.937 46.7851 35.1257 46.3447 35.304V24.3918H47.6321Z" fill="#DD8910"/>
<path d="M51.4944 21.1824V31.8542C51.0889 32.1574 50.6608 32.4496 50.207 32.7364V21.1824H51.4944Z" fill="#DD8910"/>
<path d="M54.713 17.973V26.8299C54.5428 27.5487 54.3272 28.2375 54.0693 28.8852V17.973H54.713Z" fill="#DD8910"/>
<path d="M29.2878 30.8108C44.0408 30.8108 56.0005 23.9136 56.0005 15.4054C56.0005 6.89723 44.0408 0 29.2878 0C14.5348 0 2.5752 6.89723 2.5752 15.4054C2.5752 23.9136 14.5348 30.8108 29.2878 30.8108Z" fill="#FCA70D"/>
<path d="M47.0793 43.2777C37.2536 48.9215 21.3235 48.9215 11.4978 43.2777L11.0376 43.0146L10.9424 43.0725V62.8349C11.1222 62.9454 11.3074 63.0559 11.4978 63.1638C21.3235 68.8102 37.2536 68.8102 47.0793 63.1638C47.2697 63.0559 47.4495 62.9428 47.632 62.8297V43.0672L47.5342 43.0067C47.3861 43.1014 47.2353 43.1883 47.0793 43.2777Z" fill="#ECE8F9"/>
<path d="M33.4716 51.7203C26.5833 52.2673 19.3046 51.5074 13.5176 49.4257V51.4521C19.3046 53.5296 26.5913 54.2937 33.4716 53.7488V51.7203Z" fill="#50555C"/>
<path d="M33.4716 56.2272C26.5833 56.9278 19.3046 55.9535 13.5176 53.277V55.8824C19.2993 58.5534 26.5833 59.5359 33.4716 58.8353V56.2272Z" fill="#50555C"/>
<path d="M39.9082 50.0323V57.7703C40.4724 57.5885 41.1802 57.3581 41.8392 57.1354V49.4257H41.8125C41.2118 49.6612 40.4457 49.8864 39.9082 50.0323Z" fill="#50555C"/>
<path d="M43.7698 51.3513C41.6947 52.2425 39.5379 52.9094 37.333 53.3416V55.8446C39.5379 55.4123 41.6947 54.7454 43.7698 53.8543V51.3513Z" fill="#50555C"/>
</svg>
